<?xml version="1.0" encoding="utf-8"?>
<!-- Generator: Adobe Illustrator 24.2.3, SVG Export Plug-In . SVG Version: 6.00 Build 0)  -->
<svg version="1.1" id="Camada_1" xmlns="http://www.w3.org/2000/svg" xmlns:xlink="http://www.w3.org/1999/xlink" x="0px" y="0px"
	 viewBox="0 0 350 165" style="enable-background:new 0 0 350 165;" xml:space="preserve">
<style type="text/css">
	.st0{fill:#151515;stroke:#E4E2E2;}
	.st1{fill:#232323;stroke:#D6D6D6;stroke-miterlimit:10;}
	.st2{fill:#FFFFFF;}
	.st3{font-family:'ArialMT';}
	.st4{font-size:12px;}
	.st5{fill:#9F9F9F;}
	.st6{font-size:9px;}
	.st7{fill:none;stroke:#D6D6D6;stroke-miterlimit:10;}
	.st8{fill:#AAAAAA;}
	.st9{font-size:11px;}
	.st10{fill:#00CC00;stroke:#008400;stroke-width:0.25;stroke-miterlimit:10;}
</style>
<path class="st0" d="M5,0.4h340c2.5,0,4.5,2,4.5,4.5v154.3c0,2.5-2,4.5-4.5,4.5H5c-2.5,0-4.5-2-4.5-4.5V4.9C0.5,2.5,2.5,0.4,5,0.4z"
	/>
<path class="st1" d="M295.5,88.4H28.8c-2.1,0-3.8-1.7-3.8-3.8V64.3c0-2.1,1.7-3.8,3.8-3.8h266.7c2.1,0,3.8,1.7,3.8,3.8v20.3
	C299.3,86.7,297.6,88.4,295.5,88.4z"/>
<g transform="translate(25, 35)">
	<g transform="translate(0, 0)">
		<text class="st2 st3 st4">E-Sports - Treino entre equipes</text>
	</g>
</g>
<text transform="matrix(1 0 0 1 25.0001 47.8237)" class="st5 st3 st6">ICEI PUC Minas</text>
<path class="st7" d="M296.6,146.6h-269c-1.5,0-2.6-1.2-2.6-2.6V63.2c0-1.5,1.2-2.6,2.6-2.6h269c1.5,0,2.6,1.2,2.6,2.6V144
	C299.3,145.5,298.1,146.6,296.6,146.6z"/>
<text transform="matrix(1 0 0 1 39.4149 106.214)"><tspan x="0" y="0" class="st8 st3 st9">Taxa de Atividade:</tspan><tspan x="91.1" y="0" class="st2 st3 st4">                               34,12%</tspan><tspan x="0" y="17" class="st8 st3 st9">Duração Relativa da Atividade:</tspan><tspan x="151" y="17" class="st5 st3 st9">             </tspan><tspan x="190.8" y="17" class="st2 st3 st4">15,50%</tspan><tspan x="0" y="34" class="st8 st3 st9">Variação da Periodicidade:</tspan><tspan x="131.5" y="34" class="st5 st3 st9">                    </tspan><tspan x="192.6" y="34" class="st2 st3 st4">122,34</tspan></text>
<path class="st10" d="M33.2,100.8c-2.2,0-2.2,3.5,0,3.5C35.4,104.3,35.4,100.8,33.2,100.8z"/>
<text transform="matrix(1 0 0 1 79.7644 80.2648)" class="st2 st3 st4">Hugo Poletto Alacoque Gomes</text>
<path class="st10" d="M33.2,118c-2.2,0-2.2,3.5,0,3.5C35.4,121.4,35.4,118,33.2,118z"/>
<path class="st10" d="M33.2,135.3c-2.2,0-2.2,3.5,0,3.5C35.4,138.8,35.4,135.3,33.2,135.3z"/>
</svg>
